<mxfile host="app.diagrams.net" agent="Mozilla/5.0 (Windows NT 10.0; Win64; x64) AppleWebKit/537.36 (KHTML, like Gecko) Chrome/130.0.0.0 Safari/537.36" version="24.7.14">
  <diagram name="Page-1" id="NmEnxmby1KCLEg6SyC-g">
    <mxGraphModel dx="2200" dy="1180" grid="1" gridSize="10" guides="1" tooltips="1" connect="1" arrows="1" fold="1" page="1" pageScale="1" pageWidth="827" pageHeight="1169" math="0" shadow="0">
      <root>
        <mxCell id="0" />
        <mxCell id="1" parent="0" />
        <mxCell id="nFvMSIwQN8K3JbJypWRP-25" style="edgeStyle=orthogonalEdgeStyle;rounded=0;orthogonalLoop=1;jettySize=auto;html=1;exitX=0.5;exitY=1;exitDx=0;exitDy=0;entryX=0.5;entryY=0;entryDx=0;entryDy=0;" edge="1" parent="1" source="nFvMSIwQN8K3JbJypWRP-1" target="nFvMSIwQN8K3JbJypWRP-2">
          <mxGeometry relative="1" as="geometry" />
        </mxCell>
        <mxCell id="nFvMSIwQN8K3JbJypWRP-1" value="&lt;font style=&quot;font-size: 18px;&quot;&gt;Start&lt;/font&gt;" style="ellipse;whiteSpace=wrap;html=1;" vertex="1" parent="1">
          <mxGeometry x="630" y="180" width="180" height="105" as="geometry" />
        </mxCell>
        <mxCell id="nFvMSIwQN8K3JbJypWRP-24" style="edgeStyle=orthogonalEdgeStyle;rounded=0;orthogonalLoop=1;jettySize=auto;html=1;exitX=0.5;exitY=1;exitDx=0;exitDy=0;entryX=0.5;entryY=0;entryDx=0;entryDy=0;" edge="1" parent="1" source="nFvMSIwQN8K3JbJypWRP-2" target="nFvMSIwQN8K3JbJypWRP-12">
          <mxGeometry relative="1" as="geometry" />
        </mxCell>
        <mxCell id="nFvMSIwQN8K3JbJypWRP-2" value="&lt;font style=&quot;font-size: 15px;&quot;&gt;Initialize the parameters such as CFL, grid size, rho, P, T, V etc.&lt;/font&gt;" style="rounded=0;whiteSpace=wrap;html=1;" vertex="1" parent="1">
          <mxGeometry x="649" y="380" width="142" height="110" as="geometry" />
        </mxCell>
        <mxCell id="nFvMSIwQN8K3JbJypWRP-28" style="edgeStyle=orthogonalEdgeStyle;rounded=0;orthogonalLoop=1;jettySize=auto;html=1;exitX=0.5;exitY=1;exitDx=0;exitDy=0;entryX=0.5;entryY=0;entryDx=0;entryDy=0;" edge="1" parent="1" source="nFvMSIwQN8K3JbJypWRP-4" target="nFvMSIwQN8K3JbJypWRP-6">
          <mxGeometry relative="1" as="geometry" />
        </mxCell>
        <mxCell id="nFvMSIwQN8K3JbJypWRP-4" value="&lt;font style=&quot;font-size: 15px;&quot;&gt;Compute the Flux and source terms using conservative variables&lt;/font&gt;" style="rounded=0;whiteSpace=wrap;html=1;" vertex="1" parent="1">
          <mxGeometry x="990" y="859.9999999999999" width="190" height="110" as="geometry" />
        </mxCell>
        <mxCell id="nFvMSIwQN8K3JbJypWRP-9" value="" style="edgeStyle=orthogonalEdgeStyle;rounded=0;orthogonalLoop=1;jettySize=auto;html=1;" edge="1" parent="1" source="nFvMSIwQN8K3JbJypWRP-6" target="nFvMSIwQN8K3JbJypWRP-8">
          <mxGeometry relative="1" as="geometry" />
        </mxCell>
        <mxCell id="nFvMSIwQN8K3JbJypWRP-6" value="&lt;font style=&quot;font-size: 15px;&quot;&gt;&lt;b&gt;Predictor Step:&lt;/b&gt;&lt;br&gt;Use forward differencing to compute the Conservative variables&lt;/font&gt;&lt;div style=&quot;font-size: 15px;&quot;&gt;&lt;br&gt;&lt;/div&gt;" style="whiteSpace=wrap;html=1;rounded=0;" vertex="1" parent="1">
          <mxGeometry x="992.5" y="1059.9999999999998" width="185" height="130" as="geometry" />
        </mxCell>
        <mxCell id="nFvMSIwQN8K3JbJypWRP-29" style="edgeStyle=orthogonalEdgeStyle;rounded=0;orthogonalLoop=1;jettySize=auto;html=1;exitX=0.5;exitY=1;exitDx=0;exitDy=0;" edge="1" parent="1" source="nFvMSIwQN8K3JbJypWRP-8" target="nFvMSIwQN8K3JbJypWRP-10">
          <mxGeometry relative="1" as="geometry" />
        </mxCell>
        <mxCell id="nFvMSIwQN8K3JbJypWRP-8" value="&lt;font style=&quot;font-size: 15px;&quot;&gt;Recalculate Flux and Source term using new conservative variables&lt;/font&gt;" style="whiteSpace=wrap;html=1;rounded=0;" vertex="1" parent="1">
          <mxGeometry x="610" y="1059.9999999999998" width="234" height="130" as="geometry" />
        </mxCell>
        <mxCell id="nFvMSIwQN8K3JbJypWRP-33" value="" style="edgeStyle=orthogonalEdgeStyle;rounded=0;orthogonalLoop=1;jettySize=auto;html=1;" edge="1" parent="1" source="nFvMSIwQN8K3JbJypWRP-10" target="nFvMSIwQN8K3JbJypWRP-32">
          <mxGeometry relative="1" as="geometry" />
        </mxCell>
        <mxCell id="nFvMSIwQN8K3JbJypWRP-10" value="&lt;font style=&quot;font-size: 15px;&quot;&gt;&lt;b&gt;Corrector Step:&lt;/b&gt;&amp;nbsp;&lt;/font&gt;&lt;div style=&quot;font-size: 15px;&quot;&gt;&lt;font style=&quot;font-size: 15px;&quot;&gt;Use backward differencing to compute Conservative Variables&lt;/font&gt;&lt;/div&gt;" style="whiteSpace=wrap;html=1;rounded=0;" vertex="1" parent="1">
          <mxGeometry x="619.25" y="1329.9999999999998" width="210.75" height="120" as="geometry" />
        </mxCell>
        <mxCell id="nFvMSIwQN8K3JbJypWRP-21" style="edgeStyle=orthogonalEdgeStyle;rounded=0;orthogonalLoop=1;jettySize=auto;html=1;exitX=0.5;exitY=1;exitDx=0;exitDy=0;entryX=0.5;entryY=0;entryDx=0;entryDy=0;" edge="1" parent="1" source="nFvMSIwQN8K3JbJypWRP-12" target="nFvMSIwQN8K3JbJypWRP-20">
          <mxGeometry relative="1" as="geometry" />
        </mxCell>
        <mxCell id="nFvMSIwQN8K3JbJypWRP-26" style="edgeStyle=orthogonalEdgeStyle;rounded=0;orthogonalLoop=1;jettySize=auto;html=1;exitX=1;exitY=0.5;exitDx=0;exitDy=0;entryX=0;entryY=0.5;entryDx=0;entryDy=0;" edge="1" parent="1" source="nFvMSIwQN8K3JbJypWRP-12" target="nFvMSIwQN8K3JbJypWRP-17">
          <mxGeometry relative="1" as="geometry" />
        </mxCell>
        <mxCell id="nFvMSIwQN8K3JbJypWRP-12" value="&lt;font style=&quot;font-size: 17px;&quot;&gt;time_now == desired time&lt;/font&gt;" style="rhombus;whiteSpace=wrap;html=1;align=center;" vertex="1" parent="1">
          <mxGeometry x="610" y="578.14" width="220" height="210" as="geometry" />
        </mxCell>
        <mxCell id="nFvMSIwQN8K3JbJypWRP-15" value="&lt;span style=&quot;font-size: 15px;&quot;&gt;True&lt;/span&gt;" style="text;html=1;align=center;verticalAlign=middle;resizable=0;points=[];autosize=1;strokeColor=none;fillColor=none;" vertex="1" parent="1">
          <mxGeometry x="880" y="640" width="50" height="30" as="geometry" />
        </mxCell>
        <mxCell id="nFvMSIwQN8K3JbJypWRP-17" value="&lt;font style=&quot;font-size: 18px;&quot;&gt;Stop&lt;/font&gt;" style="ellipse;whiteSpace=wrap;html=1;" vertex="1" parent="1">
          <mxGeometry x="990" y="631.27" width="190" height="103.75" as="geometry" />
        </mxCell>
        <mxCell id="nFvMSIwQN8K3JbJypWRP-19" value="&lt;span style=&quot;font-size: 15px;&quot;&gt;False&lt;/span&gt;" style="text;html=1;align=center;verticalAlign=middle;resizable=0;points=[];autosize=1;strokeColor=none;fillColor=none;" vertex="1" parent="1">
          <mxGeometry x="649" y="800" width="60" height="30" as="geometry" />
        </mxCell>
        <mxCell id="nFvMSIwQN8K3JbJypWRP-27" style="edgeStyle=orthogonalEdgeStyle;rounded=0;orthogonalLoop=1;jettySize=auto;html=1;exitX=1;exitY=0.5;exitDx=0;exitDy=0;" edge="1" parent="1" source="nFvMSIwQN8K3JbJypWRP-20" target="nFvMSIwQN8K3JbJypWRP-4">
          <mxGeometry relative="1" as="geometry" />
        </mxCell>
        <mxCell id="nFvMSIwQN8K3JbJypWRP-20" value="&lt;font style=&quot;font-size: 15px;&quot;&gt;Apply boundary and initial conditions&lt;/font&gt;" style="whiteSpace=wrap;html=1;" vertex="1" parent="1">
          <mxGeometry x="625" y="860" width="190" height="110" as="geometry" />
        </mxCell>
        <mxCell id="nFvMSIwQN8K3JbJypWRP-35" style="edgeStyle=orthogonalEdgeStyle;rounded=0;orthogonalLoop=1;jettySize=auto;html=1;exitX=0.5;exitY=1;exitDx=0;exitDy=0;entryX=0;entryY=0.5;entryDx=0;entryDy=0;" edge="1" parent="1" source="nFvMSIwQN8K3JbJypWRP-32" target="nFvMSIwQN8K3JbJypWRP-12">
          <mxGeometry relative="1" as="geometry">
            <Array as="points">
              <mxPoint x="1016" y="1490" />
              <mxPoint x="530" y="1490" />
              <mxPoint x="530" y="683" />
            </Array>
          </mxGeometry>
        </mxCell>
        <mxCell id="nFvMSIwQN8K3JbJypWRP-32" value="&lt;span style=&quot;font-size: 15px;&quot;&gt;&lt;b&gt;Update the time step using CFL and max eigen value of velocity&lt;/b&gt;&lt;/span&gt;" style="whiteSpace=wrap;html=1;rounded=0;" vertex="1" parent="1">
          <mxGeometry x="910" y="1329.9999999999998" width="210.75" height="120" as="geometry" />
        </mxCell>
      </root>
    </mxGraphModel>
  </diagram>
</mxfile>
